<svg id="visual" viewBox="0 0 900 600" width="900" height="600" xmlns="http://www.w3.org/2000/svg" xmlns:xlink="http://www.w3.org/1999/xlink" version="1.1"><g><g transform="translate(121 372)"><path d="M105.6 -76.2C132.7 -50.4 147.4 -6.7 135.9 25.9C124.4 58.6 86.7 80.2 49.3 95.5C12 110.8 -25 119.8 -57.7 108.4C-90.4 97.1 -118.9 65.3 -127.2 29C-135.6 -7.4 -123.9 -48.4 -99.3 -73.6C-74.8 -98.9 -37.4 -108.3 1 -109C39.3 -109.8 78.6 -101.9 105.6 -76.2Z" fill="#37434e"></path></g><g transform="translate(649 554)"><path d="M64.1 -46C79.3 -32 85.4 -5.5 80.3 18.8C75.1 43.1 58.6 65.4 35.3 78.7C11.9 92 -18.3 96.5 -40.7 85.4C-63.2 74.3 -77.8 47.7 -79 23.4C-80.2 -0.8 -68 -22.7 -52.6 -36.8C-37.3 -50.9 -18.6 -57.2 2.9 -59.5C24.4 -61.8 48.8 -60.1 64.1 -46Z" fill="#37434e"></path></g><g transform="translate(354 67)"><path d="M25.1 -19C31.2 -12.3 33.9 -2 33.1 9.8C32.2 21.6 27.7 34.9 17.9 41.1C8.2 47.2 -6.8 46.3 -15.6 39.4C-24.3 32.4 -26.7 19.6 -30.4 6.2C-34 -7.2 -38.8 -21 -34 -27.3C-29.1 -33.7 -14.6 -32.6 -2.5 -30.5C9.5 -28.5 19 -25.6 25.1 -19Z" fill="#37434e"></path></g><g transform="translate(892 11)"><path d="M58.6 -37.7C78.3 -22 98.3 2.5 96.5 26.8C94.8 51 71.3 75.1 43.6 87.1C15.9 99.1 -15.9 99 -39.9 86.1C-63.9 73.3 -80.1 47.6 -85.1 20.8C-90.1 -6 -83.9 -34 -67.8 -48.9C-51.8 -63.8 -25.9 -65.7 -3.2 -63.1C19.4 -60.5 38.8 -53.5 58.6 -37.7Z" fill="#37434e"></path></g></g></svg>